<svg width="16" height="16" viewBox="0 0 24 24" fill="none" xmlns="http://www.w3.org/2000/svg" class="text-action-primary"><path d="M7.59878 1.2968C7.20826 0.906275 6.5751 0.906275 6.18457 1.2968L2.64748 4.83389C2.25696 5.22441 2.25696 5.85758 2.64748 6.2481L6.18457 9.78519C6.5751 10.1757 7.20826 10.1757 7.59878 9.78519L11.1359 6.2481C11.5264 5.85758 11.5264 5.22441 11.1359 4.83389L7.59878 1.2968Z" fill="currentColor"></path><path d="M15.7201 7.1517C16.825 7.1517 17.7201 6.25648 17.7201 5.15131C17.7201 4.04614 16.825 3.1517 15.7201 3.1517C14.6159 3.1517 13.7201 4.04614 13.7201 5.15131C13.7201 6.25648 14.6159 7.1517 15.7201 7.1517Z" fill="currentColor"></path><path fill-rule="evenodd" clip-rule="evenodd" d="M5.5 13.0009C3.01432 13.0009 1 15.0152 1 17.5009C1 19.9865 3.01432 22.0009 5.5 22.0009C7.98568 22.0009 10 19.9865 10 17.5009C10 15.0152 7.98568 13.0009 5.5 13.0009ZM3 17.5009C3 16.1197 4.11888 15.0009 5.5 15.0009C6.88112 15.0009 8 16.1197 8 17.5009C8 18.882 6.88112 20.0009 5.5 20.0009C4.11888 20.0009 3 18.882 3 17.5009Z" fill="currentColor"></path><path fill-rule="evenodd" clip-rule="evenodd" d="M19.5 13.0009C17.0143 13.0009 15 15.0152 15 17.5009C15 19.9865 17.0143 22.0009 19.5 22.0009C21.9857 22.0009 24 19.9865 24 17.5009C24 15.0152 21.9857 13.0009 19.5 13.0009ZM17 17.5009C17 16.1197 18.1189 15.0009 19.5 15.0009C20.8811 15.0009 22 16.1197 22 17.5009C22 18.882 20.8811 20.0009 19.5 20.0009C18.1189 20.0009 17 18.882 17 17.5009Z" fill="currentColor"></path><path d="M17.697 11.448C18.3874 11.448 18.947 10.8883 18.947 10.198C18.947 9.50762 18.3874 8.94797 17.697 8.94797H15.6708L13.815 7.09221C13.3268 6.60406 12.5354 6.60406 12.0472 7.09221L9.21724 9.92219C8.33856 10.8009 8.33856 12.2255 9.21724 13.1042L11.2536 15.1406V19.0259C11.2536 19.7162 11.8133 20.2759 12.5036 20.2759C13.194 20.2759 13.7536 19.7162 13.7536 19.0259V14.6228C13.7536 14.2913 13.6219 13.9733 13.3875 13.7389L11.1618 11.5132L12.9311 9.74386L14.2691 11.0819C14.5035 11.3163 14.8215 11.448 15.153 11.448H17.697Z" fill="currentColor"></path></svg>