<svg width="16" height="16" viewBox="0 0 24 24" fill="#6366f1" xmlns="http://www.w3.org/2000/svg"><g opacity="1"><path d="M12 11C14.4853 11 16.5 8.98528 16.5 6.5C16.5 4.01472 14.4853 2 12 2C9.51473 2 7.50002 4.01472 7.50002 6.5C7.50002 8.98528 9.51473 11 12 11Z" fill="#6366f1"></path><path d="M12 19C10.3 19 9.00002 20.3 9.00002 22H15C15 20.3 13.7 19 12 19Z" fill="#6366f1"></path><path d="M19.4 16.6L19.8 19.8C19.9 21 19 22 17.8 22H17C17 19.2 14.8 17 12 17C9.19999 17 6.99999 19.2 6.99999 22H6.19999C4.99999 22 4.09999 21 4.19999 19.8L4.6 16.6C4.8 14.5 6.6 13 8.6 13H15.4C17.5 13 19.2 14.6 19.4 16.6Z" fill="#6366f1"></path></g></svg>