<svg width="16" height="16" viewBox="0 0 24 24" fill="none" xmlns="http://www.w3.org/2000/svg" class="text-action-primary"><path fill-rule="evenodd" clip-rule="evenodd" d="M2.00198 11.4348C2.00202 11.215 2.03828 10.9968 2.10932 10.7888L4.38527 4.12507C4.59909 3.49909 5.10861 3.01927 5.74634 2.84344C7.78389 2.28167 9.86995 2.00098 12.002 2.00098C14.1339 2.00098 16.2189 2.28163 18.2542 2.84342C18.8916 3.01931 19.4008 3.49886 19.6147 4.12445L21.8925 10.7883C21.9637 10.9966 22 11.2152 22 11.4352C22 14.2918 22 17.1461 22 20.001C22 21.1053 21.1043 22.001 20 22.001C18.8957 22.001 18 21.1053 18 20.001V18.8661C16.0251 19.2891 14.0247 19.501 12 19.501C9.9753 19.501 7.97494 19.2891 6 18.8661V20.001C6 21.1053 5.10429 22.001 4 22.001C2.89571 22.001 2 21.1053 2 20.001C2 17.1456 2.00148 14.2902 2.00198 11.4348ZM6.27791 4.77152C8.14056 4.25795 10.0478 4.00098 12.002 4.00098C13.9562 4.00098 15.8621 4.25793 17.7222 4.77136L19.5098 10.001H4.49182L6.27791 4.77152ZM5.5 16.0971C6.32843 16.0971 7 15.4255 7 14.5971C7 13.7687 6.32843 13.0971 5.5 13.0971C4.67157 13.0971 4 13.7687 4 14.5971C4 15.4255 4.67157 16.0971 5.5 16.0971ZM20 14.5971C20 15.4255 19.3284 16.0971 18.5 16.0971C17.6716 16.0971 17 15.4255 17 14.5971C17 13.7687 17.6716 13.0971 18.5 13.0971C19.3284 13.0971 20 13.7687 20 14.5971Z" fill="currentColor"></path></svg>